<svg version="1.1" id="Layer_1" xmlns="http://www.w3.org/2000/svg" xmlns:xlink="http://www.w3.org/1999/xlink" x="0px" y="0px"
	 viewBox="0 0 1447.1 167.1" style="enable-background:new 0 0 1447.1 167.1;" xml:space="preserve">
<style type="text/css">
	.triangle{fill:#00ADEE;}
	.text{fill:#58595B;}
</style>
<polygon class="triangle" points="730.4,117.5 699.9,102.5 669.4,117.5 699.9,48.9 "/>
<path class="text" d="M1317.6,36.2H1265V25.4h52.5V7.8h-134c0.1,0.1,0.1,0.1,0.2,0.2c0,0,0,0,0.1,0.1c5.1,4.9,9,10.7,11.7,17.3h51.8
	v10.8h-48.4c1.1,5,1.6,10.4,1.6,16.1c0,0.6,0,1.1,0,1.7h46.9v105.8h17.8V53.9h52.5V36.2z"/>
<path class="text" d="M885.9,7.8v109.4L790.7,0v166.5l56.5-69l56.5,69.6V7.8H885.9z M822,100.6c-4.5,5.3-9,10.7-13.5,16.2V50.3
	c2.8,3.5,5.4,6.6,7.6,9.3c2.3,2.7,4.4,5.3,6.3,7.7c2,2.5,4,5,6.1,7.6c2.1,2.6,4.5,5.5,7.2,8.8C831.1,89.7,826.5,95.3,822,100.6z"/>
<path class="text" d="M1156.6,95.4c1.7-0.6,3.4-1.2,5.2-1.8c1.8-0.6,3.6-1.5,5.6-2.6c2.4-1.4,4.9-3.2,7.4-5.3
	c2.5-2.1,4.8-4.7,6.9-7.7c2-3,3.7-6.7,5.1-10.9c1.3-4.2,2-9.2,2-14.8c0-15.4-4.4-27.3-13.1-35.8c-3-2.8-6-5-9.2-6.6
	c-3.2-1.6-6.1-2.7-8.9-3.4c-2.8-0.7-5.1-1.1-7.1-1.3c-2-0.1-3.2-0.2-3.6-0.2h-67.5l45.7,74H1083v80.6h18V97.3h35.3l39.3,63.9
	l15.4-9.3L1156.6,95.4z M1146.2,79.1L1112,23.1h34.9c0.1,0,0.7,0,1.8,0.1c1.1,0.1,2.4,0.3,3.9,0.7c1.5,0.4,3.3,1.1,5.2,1.9
	c1.9,0.8,3.7,2.1,5.4,3.8v-0.2c5.1,4.9,7.6,12.6,7.6,22.8c0,10.7-4,18.4-12.1,23.1l0.2-0.2c-2.4,1.4-4.8,2.4-7.3,2.9
	C1149.1,78.5,1147.4,78.8,1146.2,79.1z"/>
<path class="text" d="M83.8,139.7c-7.3-7-14.8-14-22.4-21.2c-7.6-7.1-15.1-14.2-22.5-21.3c-7.4-7.1-14.5-13.8-21.3-20.1V7.6H0v152.1
	h104.7C98.1,153.4,91.1,146.7,83.8,139.7z M17.6,141.9v-40.2c4.1,3.8,7.9,7.4,11.4,10.7c3.5,3.3,7,6.6,10.4,9.7
	c3.4,3.2,6.7,6.4,10,9.6c3.3,3.2,6.8,6.6,10.5,10.2H17.6z"/>
<path class="text" d="M321.9,7.8v109.4L226.7,0v166.5l56.5-69l56.5,69.6V7.8H321.9z M258,100.6c-4.5,5.3-9,10.7-13.5,16.2V50.3
	c2.8,3.5,5.4,6.6,7.6,9.3c2.3,2.7,4.4,5.3,6.3,7.7c2,2.5,4,5,6.1,7.6c2.1,2.6,4.5,5.5,7.2,8.8C267.1,89.7,262.5,95.3,258,100.6z"/>
<path class="text" d="M573.2,95.4c1.7-0.6,3.4-1.2,5.2-1.8c1.8-0.6,3.6-1.5,5.6-2.6c2.4-1.4,4.9-3.2,7.4-5.3c2.5-2.1,4.8-4.7,6.9-7.7
	c2-3,3.7-6.7,5.1-10.9c1.3-4.2,2-9.2,2-14.8c0-15.4-4.4-27.3-13.1-35.8c-3-2.8-6-5-9.2-6.6c-3.2-1.6-6.1-2.7-8.9-3.4
	c-2.7-0.7-5.1-1.1-7.1-1.3c-2-0.1-3.2-0.2-3.6-0.2H496l45.7,74h-42.1v80.6h18V97.3h35.3l39.3,63.9l15.4-9.3L573.2,95.4z M562.9,79.1
	l-34.3-56.1h34.9c0.1,0,0.7,0,1.8,0.1c1.1,0.1,2.4,0.3,3.9,0.7c1.5,0.4,3.3,1.1,5.2,1.9c1.9,0.8,3.7,2.1,5.4,3.8v-0.2
	c5.1,4.9,7.6,12.6,7.6,22.8c0,10.7-4,18.4-12.1,23.1l0.2-0.2c-2.4,1.4-4.8,2.4-7.3,2.9C565.8,78.5,564,78.8,562.9,79.1z"/>
<path class="text" d="M208,120.2c0.7-3.5,1.1-6.7,1.2-9.5c0.1-2.8,0.1-4.9,0.1-6.1V4.4h-18v100.9c0,0.8,0,2.2,0,4.1
	c0,1.9-0.2,4.1-0.6,6.6c-0.4,2.5-1.2,5-2.2,7.7c-1.1,2.7-2.6,5.2-4.8,7.6c-6.2,7.1-16.3,10.6-30.3,10.6c-13.5,0-23.8-3.7-30.7-11
	c-2.7-2.8-4.7-5.9-6-9.3c-1.3-3.4-2.3-6.6-2.8-9.5c-0.5-3-0.7-6.5-0.7-10.6V5.1h-18v96c0,0.7,0,2.5,0.1,5.4
	c0.1,2.9,0.5,6.4,1.4,10.5c0.8,4.1,2.3,8.5,4.2,13.1c2,4.7,4.9,9,8.7,13.1c10,11.1,24.6,16.7,43.8,16.7c9.3,0,17.7-1.5,25.2-4.5
	c7.5-3,13.7-7.2,18.6-12.6c3.1-3.5,5.5-7.3,7.2-11.3C206.1,127.5,207.3,123.7,208,120.2z"/>
<path class="text" d="M1429.6,9.6v44h-82.7v-44h-17.6v152.5h17.6v-49.1h82.7v49.1h17.6V9.6H1429.6z M1429.6,93.5h-82.7V69.2h82.7
	V93.5z"/>
<path class="text" d="M1069.6,67c-1.1-5-2.6-10-4.5-14.9c-2-4.5-4.4-8.9-7.3-13.2c-2.9-4.3-6-8.1-9.2-11.5c-3.2-3.2-7-6.3-11.3-9.1
	c-4.3-2.8-8.7-5.2-13.2-7.2c-4.9-2-9.9-3.5-15-4.7c-5.1-1.1-10.2-1.7-15.2-1.7c-5.2,0-10.3,0.6-15.2,1.7c-4.9,1.1-9.9,2.7-14.8,4.7
	c-9.6,4.1-17.8,9.6-24.8,16.5c-7.1,7.1-12.5,15.2-16.3,24.5c-2,4.9-3.5,9.9-4.7,14.9c-1.1,5-1.7,10.1-1.7,15.3
	c0,5.1,0.6,10.1,1.7,15.1c1.1,5,2.7,10,4.7,14.9c2,4.9,4.3,9.4,7.1,13.4c2.8,4,5.7,7.8,9,11.3c3.5,3.2,7.3,6.2,11.4,9
	c4.1,2.7,8.6,5.2,13.5,7.3c9.9,4.1,19.9,6.1,30,6.1c10,0,20.1-2,30.3-6.1c9-3.8,17.1-9.3,24.3-16.5c7.2-7.2,12.8-15.4,16.7-24.5
	c2-4.9,3.5-9.9,4.5-14.9c1.1-5,1.6-10,1.6-15.1C1071.2,77.1,1070.6,72,1069.6,67z M1048.5,105.1c-3.1,7.2-7.4,13.5-12.8,18.9
	c-5.4,5.4-11.7,9.7-18.9,12.8c-7.2,3.1-14.9,4.7-23.1,4.7c-8.2,0-15.9-1.5-23.1-4.7c-7.2-3.1-13.5-7.4-18.9-12.8
	c-5.4-5.4-9.7-11.7-12.8-18.9c-3.1-7.2-4.7-14.8-4.7-22.8c0-8.2,1.5-15.9,4.7-23.2c3.1-7.3,7.4-13.6,12.8-18.9
	c5.4-5.4,11.7-9.6,18.9-12.7c7.2-3.1,14.9-4.7,23.1-4.7c8.2,0,15.9,1.6,23.1,4.7c7.2,3.1,13.5,7.3,18.9,12.7
	c5.4,5.4,9.7,11.7,12.8,18.9c3.1,7.3,4.7,15,4.7,23.2C1053.2,90.3,1051.6,97.9,1048.5,105.1z"/>
<polygon class="text" points="354.3,154.2 370.4,161.2 419.3,46.8 467.9,161.2 484,154 419.3,2.1 "/>
</svg>
