<?xml version="1.0" encoding="utf-8"?>
<svg version="1.1" id="social-ig" xmlns="http://www.w3.org/2000/svg" xmlns:xlink="http://www.w3.org/1999/xlink" x="0px" y="0px"
	 viewBox="0 0 70 70" style="enable-background:new 0 0 70 70;" xml:space="preserve">
<!-- <style type="text/css">
	.st0{fill:#58595B;}
</style>
 --><g>
	<path class="st0" d="M58.3,7.7h-7.9c-2.2,0-4,1.8-4,4v7.9c0,2.2,1.8,4,4,4h7.9c2.2,0,4-1.8,4-4v-7.9C62.3,9.5,60.5,7.7,58.3,7.7z
		 M59.3,19.6c0,0.6-0.5,1-1,1h-7.9c-0.6,0-1-0.5-1-1v-7.9c0-0.6,0.5-1,1-1h7.9c0.6,0,1,0.5,1,1V19.6z"/>
	<path class="st0" d="M62.6,0H7.4C3.3,0,0,3.3,0,7.4v55.3C0,66.7,3.3,70,7.4,70h55.3c4.1,0,7.4-3.3,7.4-7.4V7.4
		C70,3.3,66.7,0,62.6,0z M67.1,62.6c0,2.4-2,4.4-4.4,4.4H7.4c-2.4,0-4.4-2-4.4-4.4V31.3h18.2c-0.3,1.2-0.5,2.4-0.5,3.7
		c0,7.9,6.4,14.4,14.4,14.4S49.3,42.9,49.3,35c0-1.2-0.2-2.5-0.5-3.7h18.2V62.6z M23.6,35c0-6.3,5.1-11.4,11.4-11.4
		S46.4,28.7,46.4,35S41.3,46.4,35,46.4S23.6,41.3,23.6,35z M67.1,28.4H47.7c-2.5-4.7-7.4-7.7-12.7-7.7c-5.3,0-10.3,3-12.7,7.7H2.9
		v-21c0-2.4,2-4.4,4.4-4.4h55.3c2.4,0,4.4,2,4.4,4.4V28.4z"/>
</g>
</svg>