<?xml version="1.0" encoding="utf-8"?>
<svg version="1.1" id="social-fb" xmlns="http://www.w3.org/2000/svg" xmlns:xlink="http://www.w3.org/1999/xlink" x="0px" y="0px"
	 viewBox="0 0 70 70" style="enable-background:new 0 0 70 70;" xml:space="preserve">
<!-- <style type="text/css">
	.st0{fill:#58595B;}
</style>
 --><path class="st0" d="M67.8,2.2C66.4,0.8,64.6,0,62.6,0H7.4C3.3,0,0,3.3,0,7.4v55.3C0,66.7,3.3,70,7.4,70h29.9c0.8,0,1.5-0.7,1.5-1.5
	v-26c0-0.8-0.7-1.5-1.5-1.5H30v-7.2h7.3c0.8,0,1.5-0.7,1.5-1.5V25c0-7.6,4.2-11.9,11.5-11.9c2.6,0,4.9,0.1,6.3,0.3v6.2l-3.9,0
	c-5.8,0-6.5,3.7-6.5,6.4v6.5c0,0.8,0.7,1.5,1.5,1.5h8.3l-0.9,7.2h-7.4c-0.8,0-1.5,0.7-1.5,1.5v26c0,0.8,0.7,1.5,1.5,1.5h14.9
	c4.1,0,7.4-3.3,7.4-7.4V7.4C70,5.4,69.2,3.6,67.8,2.2z M67.1,62.6c0,2.4-2,4.4-4.4,4.4H49.2V44h7.2c0.7,0,1.4-0.6,1.5-1.3l1.3-10.1
	c0.1-0.4-0.1-0.8-0.4-1.2c-0.3-0.3-0.7-0.5-1.1-0.5h-8.5v-5c0-2.3,0.3-3.5,3.5-3.5l5.4,0c0.8,0,1.5-0.7,1.5-1.5V12
	c0-0.7-0.6-1.4-1.3-1.5c-1-0.1-4.3-0.4-8-0.4c-8.9,0-14.5,5.7-14.5,14.8v6h-7.3c-0.8,0-1.5,0.7-1.5,1.5v10.1c0,0.8,0.7,1.5,1.5,1.5
	h7.3v23H7.4c-2.4,0-4.4-2-4.4-4.4V7.4c0-2.4,2-4.4,4.4-4.4h55.3c2.4,0,4.4,2,4.4,4.4V62.6z"/>
</svg>
