<?xml version="1.0" encoding="utf-8"?>
<svg version="1.1" id="Layer_1" xmlns="http://www.w3.org/2000/svg" xmlns:xlink="http://www.w3.org/1999/xlink" x="0px" y="0px" viewBox="0 0 200 200" style="enable-background:new 0 0 200 200;" xml:space="preserve">
 <g class="box">
	<path d="M187,166.5V33.5c5.8-2.1,10-7.7,10-14.2c0-8.3-6.8-15.1-15.1-15.1c-6.2,0-11.6,3.8-13.9,9.2H32c-2.3-5.4-7.7-9.2-13.9-9.2
		C9.8,4.2,3,10.9,3,19.3C3,26,7.4,31.7,13.5,33.7v132.7C7.4,168.3,3,174,3,180.7c0,8.3,6.8,15.1,15.1,15.1c6.2,0,11.5-3.7,13.8-9
		h136.2c2.3,5.3,7.6,9,13.8,9c8.3,0,15.1-6.8,15.1-15.1C197,174.2,192.8,168.6,187,166.5z M173.5,168.2l-60.7-59.8
		c1.6-2.4,2.5-5.2,2.5-8.3c0-3.1-0.9-6-2.5-8.4l60.7-59.8c2.1,1.4,4.6,2.3,7.3,2.5v131.4C178.2,165.9,175.7,166.8,173.5,168.2z
		 M169.2,27.4l-60.8,59.9c-2.4-1.5-5.2-2.4-8.2-2.4c-3.1,0-6.1,1-8.5,2.6l-61-60.1c1.5-2.3,2.4-5,2.4-8h133.6
		C166.9,22.4,167.7,25.1,169.2,27.4z M26.5,31.8l61,60.2c-1.5,2.3-2.3,5.1-2.3,8c0,2.9,0.8,5.7,2.3,8l-61,60.1
		c-2-1.3-4.3-2.2-6.8-2.4V34.3C22.2,34,24.5,33.2,26.5,31.8z M30.8,172.6l60.9-60.1c2.4,1.7,5.4,2.7,8.6,2.7c3,0,5.9-0.9,8.2-2.5
		l60.7,59.8c-1.5,2.3-2.4,5.1-2.4,8.1H33.2C33.2,177.7,32.3,174.9,30.8,172.6z"/>
</g>
<g class="x x-1">
	<path d="M100,114.1l-57.1,69.7V15.5L139.2,134V23.4h18v161.1L100,114.1z M60.8,133.6c4.6-5.6,9.1-11,13.7-16.4
		c4.6-5.4,9.2-11,13.9-17c-2.7-3.3-5.1-6.2-7.3-8.9C79,88.7,77,86.1,75,83.6c-2-2.5-4.1-5.1-6.4-7.8c-2.3-2.7-4.9-5.8-7.7-9.4V133.6
		z"/>
</g>
<g class="x x-2">
	<path d="M42.6,183.4V16.6h19.3v76.4c7.4,7,15.2,14.3,23.3,22.1c8.1,7.7,16.4,15.5,24.7,23.3s16.5,15.6,24.6,23.2
		c8,7.6,15.7,15,23,21.9H42.6z M108.2,163.9c-4-3.9-7.9-7.6-11.5-11.1c-3.6-3.6-7.3-7.1-11-10.6c-3.7-3.5-7.5-7-11.4-10.7
		c-3.9-3.6-8-7.5-12.5-11.7v44.1H108.2z"/>
</g>
<g class="x x-3">
	<polygon points="165.1,173.2 100,141.2 34.9,173.2 100,26.8 "/>
</g>
<g class="x x-4">
	<path d="M95.1,141.7c-0.9-0.6-2-1.2-3.4-1.9l-6.3-2.7c-8.3-2.9-16-5.5-22.6-7.8c-5.4,1.5-9.8,2.7-12.6,3.5c3.1,0.6,6.1,2.5,8.2,5.3
		c3.8,4.8,4.3,11.2,1.6,15.6C67.7,151.1,81,146.6,95.1,141.7z"/>
	<path d="M48.8,135.5c-2-0.2-4,0.4-5.5,1.7c-3.6,3.1-3.6,9.4,0,14c2.1,2.7,4.9,4.2,7.6,4.4c2,0.2,4-0.4,5.5-1.7
		c3.6-3.1,3.6-9.4,0-14C54.4,137.2,51.5,135.7,48.8,135.5z"/>
	<path d="M138,150.1c-0.2-1-0.3-2-0.3-3c0.1-3.1,1.2-6.3,3.3-9c2.2-2.8,5.1-4.7,8.2-5.3c-4.3-1.2-12.4-3.5-22.2-6.2
		c-3.6,5.4-8.5,8.4-13,10.1l-6.1,2.3c-1.8,0.9-3.1,1.8-4.1,2.5c14.4,4.9,27.8,9.5,35.5,12.1c-0.5-0.8-0.9-1.7-1.2-2.6
		C138.1,150.7,138.1,150.4,138,150.1z"/>
	<path d="M150.7,135.5c-1.4,0.1-2.7,0.6-4,1.3c-1.3,0.7-2.5,1.8-3.6,3.1c-1.8,2.3-2.7,5-2.7,7.5c0,0.6,0.1,1.3,0.2,1.9
		c0.1,0.6,0.3,1.2,0.5,1.7c0.5,1.1,1.1,2.1,2,2.8c1.5,1.3,3.5,1.9,5.5,1.7c0.7-0.1,1.4-0.2,2-0.4c2-0.7,4-2,5.6-4
		c1.1-1.4,1.9-3,2.3-4.7c0.9-3.6,0.1-7.2-2.3-9.3C154.6,135.8,152.7,135.3,150.7,135.5z"/>
	<path d="M66.7,90.3l-0.5-1.9c-4.7,0.2-9.1,0.5-12.8,0.8C46.8,90,40.9,91,40.9,91c15-0.6,22.2-0.7,25-0.7
		C66.2,90.3,66.5,90.3,66.7,90.3z"/>
	<path d="M129,90.2c1.3,0,2.5,0.1,3.8,0.2c0.2,0,0.6,0,1.4,0c2.8,0,10,0.1,25,0.7c0,0-6.5-1.1-13.5-1.9c-3.7-0.3-8-0.5-12.6-0.7
		c0,0,0,0-0.1,0c0,0,0,0,0,0c-0.1,0-0.2,0-0.2,0c-1.5-0.1-3-0.1-4.5-0.2c0.1,0.3,0.2,0.6,0.3,0.8C128.7,89.4,128.8,89.8,129,90.2z"
		/>
	<path d="M146.1,106.1c0,0-5.4,1.5-13.7,3.8c-0.5,6.3-2.1,11.3-4.3,15.2c3,0.8,5.8,1.6,8.4,2.4c10.2-3.6,17.5-6.2,18.4-6.7
		c4.3-2.4,5.4-7,3.2-11.4C155.6,104.5,150.5,104.7,146.1,106.1z"/>
	<path d="M41.2,117.2c0.2,0.5,0.5,0.9,0.9,1.3c0.2,0.2,0.4,0.4,0.5,0.6c0.6,0.6,1.3,1.1,2.1,1.6c0.5,0.3,2.5,1.1,5.8,2.2
		c0.3,0.1,0.7,0.2,1,0.4c3.7,1.3,8.7,3.1,14.4,5.1l0,0c1.9,0.7,3.9,1.4,5.9,2.1c0.6,0.2,1.2,0.4,1.8,0.6c0.8,0.3,1.6,0.5,2.4,0.8
		c-7.9-6.2-10.8-15.2-11.1-22.7c-6.9-1.9-11.3-3.2-11.3-3.2c-4.4-1.4-9.6-1.6-12,3.2c-0.6,1.1-0.9,2.2-1.1,3.3
		c-0.1,0.8-0.1,1.6,0,2.4c0.1,0.5,0.2,1,0.4,1.5C40.9,116.8,41,117,41.2,117.2z"/>
	<path d="M108.3,89.7c-0.2-0.4-0.3-0.8-0.5-1.2c-0.1-0.2-0.2-0.5-0.3-0.7c-0.2-0.5-0.4-1-0.7-1.5c-0.5-1-1-1.9-1.5-2.9
		c-1.7-3-3.8-5.9-6.4-8.5c0,0-0.1,5.3-2.2,11.4c-0.2,0.5-0.4,1-0.6,1.5c-0.3,0.6-0.5,1.3-0.9,1.9c-0.2,0.5-0.5,1-0.8,1.5
		c-0.6,1.1-1.3,2.2-2,3.2c-0.2,0.2-0.3,0.5-0.5,0.7c2.9,0,5.9,0,8.8,0c3.1,0,6.2,0,9.3,0c-0.1-0.5-0.3-1.1-0.5-1.7
		c-0.2-0.7-0.5-1.5-0.7-2.3C108.7,90.7,108.5,90.2,108.3,89.7z"/>
	<path d="M69,94.6c0.9,0,1.8,0.1,2.7,0.1c0.1-2.4-0.3-3.9-0.3-3.9c1.5,0.9,2.8,3,3.4,4c0.2,0,0.3,0,0.5,0C76.8,88.5,79.7,82,89.1,69
		c9.7-13.5,9.9-30.3,9.9-30.3c18.5,18.3,20.2,47.6,20.2,47.6l2.9-4.5c-0.4,2,1.9,7.4,3.7,13c0.9,0,1.9-0.1,2.8-0.1
		c-0.5-1.7-1.1-3.5-1.7-5.1c-0.9-2.7-2.2-6.3-2.1-7.3l2.5-13.5l-6.3,9.8c-1.8-10.2-6.6-28.6-20-41.8l-4.5-4.5l-0.1,6.4
		c0,0.2-0.3,16.2-9.4,28.7C79.5,77.7,76,84.1,74.1,89.5c-0.4-0.3-0.8-0.7-1.2-0.9l-5.6-3.4l1.6,6.4C68.8,91.5,69.1,92.7,69,94.6z"/>
	<path d="M163.2,93.2C163.2,93.2,163.2,93.2,163.2,93.2c-1.3,0.6-5.4,1.7-17.8,2.2l0,0c-0.9,0.1-1.9,0.1-2.9,0.2
		c-5.2,0.4-11,0.7-17.3,0.9c-7.5,0.2-15.7,0.3-24.4,0.3c-10.9,0-21.1-0.2-30-0.4c-2.2-0.1-4.3-0.2-6.4-0.3c0.1,0.4,0.1,0.7,0.1,1.1
		c0,0.4,0,0.7-0.1,1.1c10.2,0.5,22.5,0.9,35.7,0.9c21.6,0,40.6-0.8,52.3-2.1c0.5-0.1,1.1-0.1,1.7-0.2
		C164.2,95.7,163.2,93.2,163.2,93.2z"/>
	<path d="M45.9,96.7c0.5,0,0.9,0.1,1.2,0.1c2,0.2,4.2,0.4,6.6,0.6c0-0.1,0-0.2,0-0.3c0-0.6,0.1-1.2,0.3-1.8
		c-12-0.6-15.9-1.6-17.2-2.2c0,0-0.1,0-0.1,0c0,0,0,0,0,0c0,0.1-0.6,1.9,5.7,3.1C43.5,96.4,44.7,96.6,45.9,96.7z"/>
	<circle cx="59.1" cy="97.2" r="3.6"/>
	<polygon points="92.4,167.7 99.5,164.2 106.5,167.7 99.5,151.8 	"/>
	<path d="M70.8,100.1c-0.9,0-1.9-0.1-2.8-0.1c-0.1,0.3-0.2,0.5-0.3,0.8c-2.9,7.8-1.2,26.3,15.9,33.6l8.8,3.8
		c3.2,1.5,6.5,3.6,7.2,5.6c0,0,1-3.1,7.6-6.3l6.2-2.4c7.9-3,17.3-10.5,17.2-29.1l0-0.3c0-1.8-0.3-3.6-0.7-5.6
		c-0.8,0-1.6,0.1-2.4,0.1c-0.1,0-0.2,0-0.3,0c0.4,1.9,0.7,3.8,0.7,5.5c0,3.4,0.5,20.8-15.5,26.9c4.3-4,5-9.8,5.1-12.8
		c0-0.7,0-1.2,0-1.6c0-5.2-4.2-13.3-3.8-15.4l-1.9,2.9c0,0-0.1-1.9-0.6-4.9c-3.4,0.1-7,0.1-10.5,0.1c-4.3,0-8.4,0-12.5-0.1
		c-0.2,0.3-0.3,0.5-0.5,0.7c-0.5,0.8-0.9,1.5-1.3,2.2c-1,1.8-1.6,3.3-2.1,4.7c-0.4,1.1-0.7,2.2-0.9,3.3c0,0-0.1-0.3-0.4-0.7
		c-0.3-0.6-0.9-1.3-1.5-1.9c-0.2-0.1-0.3-0.3-0.5-0.4c0,0,0.7,3-0.8,7c-0.3,0.9-0.6,2.1-0.6,3.4c-0.1,1.3,0,2.8,0.3,4.3
		c0.1,0.4,0.2,0.8,0.3,1.1c0.6,2.3,1.7,4.6,3.5,6.6c0.3,0.3,0.6,0.7,0.9,1c-8.2-3.5-12.5-9.8-14.3-16.1c-0.5-1.8-0.9-3.6-1-5.4
		c-0.1-0.7-0.1-1.4-0.1-2c0-2.6,0.4-5,1-6.7C70.5,101.2,70.6,100.6,70.8,100.1z"/>
</g>
</svg>
