<svg version="1.1" id="Layer_1" xmlns="http://www.w3.org/2000/svg" xmlns:xlink="http://www.w3.org/1999/xlink" x="0px" y="0px" viewBox="0 0 200 200" style="enable-background:new 0 0 200 200;" xml:space="preserve">
 <g class="box">
	<path d="M187,166.5V33.5c5.8-2.1,10-7.7,10-14.2c0-8.3-6.8-15.1-15.1-15.1c-6.2,0-11.6,3.8-13.9,9.2H32c-2.3-5.4-7.7-9.2-13.9-9.2
		C9.8,4.2,3,10.9,3,19.3C3,26,7.4,31.7,13.5,33.7v132.7C7.4,168.3,3,174,3,180.7c0,8.3,6.8,15.1,15.1,15.1c6.2,0,11.5-3.7,13.8-9
		h136.2c2.3,5.3,7.6,9,13.8,9c8.3,0,15.1-6.8,15.1-15.1C197,174.2,192.8,168.6,187,166.5z M173.5,168.2l-60.7-59.8
		c1.6-2.4,2.5-5.2,2.5-8.3c0-3.1-0.9-6-2.5-8.4l60.7-59.8c2.1,1.4,4.6,2.3,7.3,2.5v131.4C178.2,165.9,175.7,166.8,173.5,168.2z
		 M169.2,27.4l-60.8,59.9c-2.4-1.5-5.2-2.4-8.2-2.4c-3.1,0-6.1,1-8.5,2.6l-61-60.1c1.5-2.3,2.4-5,2.4-8h133.6
		C166.9,22.4,167.7,25.1,169.2,27.4z M26.5,31.8l61,60.2c-1.5,2.3-2.3,5.1-2.3,8c0,2.9,0.8,5.7,2.3,8l-61,60.1
		c-2-1.3-4.3-2.2-6.8-2.4V34.3C22.2,34,24.5,33.2,26.5,31.8z M30.8,172.6l60.9-60.1c2.4,1.7,5.4,2.7,8.6,2.7c3,0,5.9-0.9,8.2-2.5
		l60.7,59.8c-1.5,2.3-2.4,5.1-2.4,8.1H33.2C33.2,177.7,32.3,174.9,30.8,172.6z"/>
</g>
<g class="x x-1">
	<path d="M100,114.1l-57.1,69.7V15.5L139.2,134V23.4h18v161.1L100,114.1z M60.8,133.6c4.6-5.6,9.1-11,13.7-16.4
		c4.6-5.4,9.2-11,13.9-17c-2.7-3.3-5.1-6.2-7.3-8.9C79,88.7,77,86.1,75,83.6c-2-2.5-4.1-5.1-6.4-7.8c-2.3-2.7-4.9-5.8-7.7-9.4V133.6
		z"/>
</g>
<g class="x x-2">
	<path d="M42.6,183.4V16.6h19.3v76.4c7.4,7,15.2,14.3,23.3,22.1c8.1,7.7,16.4,15.5,24.7,23.3s16.5,15.6,24.6,23.2
		c8,7.6,15.7,15,23,21.9H42.6z M108.2,163.9c-4-3.9-7.9-7.6-11.5-11.1c-3.6-3.6-7.3-7.1-11-10.6c-3.7-3.5-7.5-7-11.4-10.7
		c-3.9-3.6-8-7.5-12.5-11.7v44.1H108.2z"/>
</g>
<g class="x x-3">
	<polygon points="165.1,173.2 100,141.2 34.9,173.2 100,26.8 "/>
</g>
<g class="x x-4">
	<path d="M93.8,154.4c-1.1-0.7-2.5-1.5-4.3-2.4l-8-3.4c-10.5-3.6-20.3-7-28.5-9.9c-6.8,1.9-12.4,3.5-15.9,4.4
		c3.9,0.8,7.7,3.1,10.4,6.7c4.8,6.1,5.4,14.2,2,19.7C59.2,166.2,75.9,160.5,93.8,154.4z"/>
	<path d="M35.3,146.4c-2.5-0.2-5,0.5-6.9,2.1c-4.6,3.9-4.6,11.8,0,17.7c2.6,3.4,6.2,5.3,9.6,5.6c2.5,0.2,5-0.5,6.9-2.1
		c4.6-3.9,4.6-11.8,0-17.7C42.3,148.7,38.7,146.7,35.3,146.4z"/>
	<path d="M148.1,165c-0.3-1.2-0.4-2.5-0.4-3.8c0.1-3.9,1.5-7.9,4.1-11.4c2.8-3.5,6.5-5.9,10.4-6.7c-5.4-1.5-15.7-4.4-28-7.8
		c-4.6,6.8-10.8,10.6-16.4,12.8l-7.7,2.9c-2.3,1.1-3.9,2.2-5.2,3.2c18.2,6.2,35.1,12,44.9,15.3c-0.6-1-1.1-2.2-1.5-3.3
		C148.2,165.8,148.1,165.4,148.1,165z"/>
	<path d="M164.1,146.5c-1.7,0.2-3.5,0.7-5.1,1.7c-1.6,0.9-3.2,2.3-4.5,3.9c-2.3,2.9-3.4,6.4-3.4,9.5c0,0.8,0.1,1.6,0.2,2.3
		c0.1,0.8,0.4,1.5,0.6,2.2c0.6,1.4,1.4,2.6,2.6,3.6c1.9,1.7,4.4,2.3,6.9,2.1c0.9-0.1,1.7-0.3,2.6-0.5c2.6-0.8,5.1-2.5,7-5.1
		c1.4-1.8,2.4-3.8,2.9-5.9c1.2-4.5,0.2-9.1-3-11.8C169.1,146.9,166.7,146.3,164.1,146.5z"/>
	<path d="M57.8,89.4L57.2,87c-6,0.3-11.5,0.6-16.2,1c-8.4,1-15.8,2.2-15.8,2.2c19-0.8,28.1-0.9,31.6-0.9
		C57.2,89.3,57.6,89.3,57.8,89.4z"/>
	<path d="M136.6,89.2c1.6,0.1,3.2,0.1,4.8,0.2c0.2,0,0.8,0,1.8,0c3.5,0,12.6,0.1,31.6,0.9c0,0-8.2-1.4-17-2.4
		c-4.7-0.3-10.1-0.7-16-0.9c0,0-0.1,0-0.1,0c0,0,0,0,0,0c-0.1,0-0.2,0-0.3,0c-1.8-0.1-3.7-0.2-5.7-0.2c0.1,0.4,0.3,0.8,0.4,1.1
		C136.3,88.2,136.5,88.7,136.6,89.2z"/>
	<path d="M158.3,109.3c0,0-6.8,1.9-17.3,4.8c-0.6,8-2.6,14.3-5.4,19.2c3.8,1.1,7.4,2.1,10.7,3c12.9-4.5,22.1-7.8,23.2-8.5
		c5.4-3.1,6.9-8.9,4-14.5C170.4,107.2,163.8,107.5,158.3,109.3z"/>
	<path d="M25.6,123.4c0.3,0.6,0.7,1.2,1.1,1.7c0.2,0.3,0.4,0.5,0.7,0.8c0.7,0.7,1.6,1.4,2.6,2c0.6,0.3,3.2,1.3,7.4,2.8
		c0.4,0.2,0.8,0.3,1.3,0.5c4.7,1.7,11,3.9,18.2,6.4l0,0c2.4,0.8,4.9,1.7,7.5,2.6c0.7,0.3,1.5,0.5,2.3,0.8c1,0.3,2,0.7,3,1
		c-9.9-7.9-13.7-19.3-14.1-28.7c-8.8-2.5-14.4-4-14.4-4c-5.6-1.8-12.1-2-15.2,4c-0.7,1.4-1.2,2.8-1.3,4.2c-0.1,1-0.1,2.1,0,3
		c0.1,0.7,0.3,1.3,0.5,1.9C25.3,122.8,25.4,123.1,25.6,123.4z"/>
	<path d="M110.5,88.6c-0.2-0.5-0.4-1-0.6-1.5c-0.1-0.3-0.3-0.6-0.4-0.9c-0.3-0.6-0.6-1.3-0.9-1.9c-0.6-1.2-1.2-2.5-1.9-3.7
		c-2.1-3.8-4.8-7.5-8.1-10.8c0,0-0.1,6.7-2.8,14.4c-0.2,0.6-0.5,1.3-0.7,1.9c-0.3,0.8-0.7,1.6-1.1,2.5c-0.3,0.6-0.6,1.3-1,1.9
		c-0.7,1.4-1.6,2.8-2.6,4.1c-0.2,0.3-0.4,0.6-0.6,0.9c3.7,0,7.4,0,11.1,0c4,0,7.9,0,11.7,0c-0.2-0.7-0.4-1.4-0.6-2.1
		c-0.3-0.9-0.6-1.9-0.9-2.9C110.9,89.8,110.7,89.2,110.5,88.6z"/>
	<path d="M60.8,94.8c1.1,0,2.3,0.1,3.4,0.1c0.1-3.1-0.3-4.9-0.3-4.9c1.9,1.2,3.6,3.8,4.3,5.1c0.2,0,0.4,0,0.6,0
		c1.9-8.1,5.6-16.2,17.5-32.7c12.3-17,12.5-38.3,12.5-38.3c23.4,23.1,25.5,60.2,25.5,60.2l3.6-5.6c-0.5,2.6,2.3,9.3,4.7,16.5
		c1.2,0,2.4-0.1,3.5-0.1c-0.7-2.2-1.4-4.4-2.2-6.5c-1.2-3.4-2.8-8-2.7-9.3l3.2-17.1l-8,12.4c-2.2-12.9-8.4-36.2-25.3-52.8L95.5,16
		l-0.1,8c0,0.2-0.4,20.4-11.9,36.3c-9.4,13.1-13.8,21.1-16.3,27.9c-0.5-0.4-1-0.8-1.6-1.2l-7.1-4.3l2,8.1
		C60.6,90.8,60.9,92.4,60.8,94.8z"/>
	<path d="M63.1,101.7c-1.2,0-2.4-0.1-3.5-0.2c-0.1,0.3-0.2,0.7-0.3,1c-3.7,9.9-1.6,33.3,20.1,42.5l11.2,4.8c4,2,8.3,4.6,9.1,7
		c0,0,1.3-3.9,9.6-8l7.8-3c10-3.8,21.9-13.3,21.8-36.8l0-0.3c0-2.2-0.3-4.6-0.9-7.1c-1,0-2,0.1-3,0.1c-0.1,0-0.3,0-0.4,0
		c0.6,2.4,0.9,4.8,0.9,6.9c0,4.3,0.6,26.3-19.6,34c5.5-5.1,6.3-12.4,6.5-16.2c0-0.9,0-1.6,0-2c0-6.6-5.3-16.8-4.8-19.5l-2.4,3.6
		c0,0-0.1-2.4-0.8-6.3c-4.4,0.1-8.8,0.1-13.3,0.1c-5.4,0-10.7-0.1-15.8-0.2c-0.2,0.3-0.4,0.6-0.6,0.9c-0.6,1-1.1,1.9-1.6,2.8
		c-1.2,2.2-2.1,4.1-2.7,5.9c-0.5,1.4-0.9,2.8-1.2,4.1c0,0-0.2-0.4-0.5-0.9c-0.4-0.7-1.1-1.7-1.9-2.4c-0.2-0.2-0.4-0.3-0.6-0.5
		c0,0,0.9,3.8-1,8.9c-0.4,1.1-0.7,2.6-0.8,4.2c-0.1,1.6,0,3.5,0.4,5.4c0.1,0.5,0.2,1,0.3,1.4c0.8,2.9,2.2,5.8,4.4,8.4
		c0.4,0.4,0.8,0.8,1.2,1.2c-10.3-4.4-15.8-12.4-18.1-20.3c-0.7-2.3-1.1-4.6-1.3-6.8c-0.1-0.9-0.1-1.7-0.1-2.6c0-3.3,0.5-6.3,1.3-8.5
		C62.7,103.1,62.9,102.4,63.1,101.7z"/>
	<path d="M180,93C180,93,179.9,93,180,93c-1.7,0.8-6.8,2.1-22.6,2.8l0,0c-1.2,0.1-2.4,0.2-3.7,0.3c-6.5,0.5-13.9,0.8-21.8,1.1
		c-9.5,0.2-19.9,0.4-30.9,0.4c-13.8,0-26.7-0.2-38-0.6c-2.8-0.1-5.4-0.2-8-0.4c0.1,0.5,0.2,0.9,0.2,1.4c0,0.5,0,0.9-0.1,1.3
		c12.9,0.7,28.4,1.1,45.1,1.1c27.3,0,51.4-1.1,66.1-2.7c0.6-0.1,1.3-0.2,2.2-0.3C181.2,96.1,180,93,180,93z"/>
	<path d="M31.6,97.5c0.6,0.1,1.1,0.1,1.5,0.2c2.5,0.3,5.3,0.6,8.4,0.8c0-0.1,0-0.3,0-0.4c0-0.8,0.1-1.6,0.4-2.3
		c-15.2-0.7-20.2-2-21.8-2.8c0,0-0.1,0-0.1,0c0,0,0,0,0,0c0,0.1-0.8,2.4,7.2,3.9C28.6,97.1,30,97.3,31.6,97.5z"/>
	<circle cx="48.3" cy="98" r="4.5"/>

</g>
</svg>
