<svg xmlns="http://www.w3.org/2000/svg" viewBox="0 0 1653.1 334.5">
<polygon class="st0" points="833 203.7 802.5 188.7 772 203.7 802.5 135.1 "/><path class="st1" d="M1420.2 122.4h-52.5v-10.8h52.5V94h-134c0.1 0.1 0.1 0.1 0.2 0.2 0 0 0 0 0.1 0.1 5.1 4.9 9 10.7 11.7 17.3h51.8v10.8h-48.4c1.1 5 1.6 10.4 1.6 16.1 0 0.6 0 1.1 0 1.7h46.9v105.8h17.8V140.2h52.5V122.4z"/><path class="st1" d="M1549.7 246.3V93.8h-17.6v44h-82.7v-44h-17.6v152.5h17.6v-49.1h82.7v49.1H1549.7zM1449.5 179.7v-24.3h82.7v24.3H1449.5z"/><path class="st1" d="M1006.3 253.3V94h-17.8v109.4L893.3 86.2v166.5l56.5-69L1006.3 253.3zM924.6 186.8c-4.5 5.3-9 10.7-13.5 16.2v-66.4c2.8 3.5 5.4 6.6 7.6 9.3 2.3 2.7 4.4 5.3 6.3 7.7 2 2.5 4 5 6.1 7.6 2.1 2.6 4.5 5.5 7.2 8.8C933.7 175.9 929.1 181.5 924.6 186.8z"/><path class="st1" d="M1172.2 153.2c-1.1-5-2.6-10-4.5-14.9 -2-4.5-4.4-8.9-7.3-13.2 -2.9-4.3-6-8.1-9.2-11.5 -3.2-3.2-7-6.3-11.3-9.1 -4.3-2.8-8.7-5.2-13.2-7.2 -4.9-2-9.9-3.5-15-4.7 -5.1-1.1-10.2-1.7-15.2-1.7 -5.2 0-10.3 0.6-15.2 1.7 -4.9 1.1-9.9 2.7-14.8 4.7 -9.6 4.1-17.8 9.6-24.8 16.5 -7.1 7.1-12.5 15.2-16.3 24.5 -2 4.9-3.5 9.9-4.7 14.9 -1.1 5-1.7 10.1-1.7 15.3 0 5.1 0.6 10.1 1.7 15.1 1.1 5 2.7 10 4.7 14.9 2 4.9 4.3 9.4 7.1 13.4 2.8 4 5.7 7.8 9 11.3 3.5 3.2 7.3 6.2 11.4 9 4.1 2.7 8.6 5.2 13.5 7.3 9.9 4.1 19.9 6.1 30 6.1 10 0 20.1-2 30.3-6.1 9-3.8 17.1-9.3 24.3-16.5 7.2-7.2 12.8-15.4 16.7-24.5 2-4.9 3.5-9.9 4.5-14.9 1.1-5 1.6-10 1.6-15.1C1173.8 163.3 1173.2 158.2 1172.2 153.2zM1151.1 191.3c-3.1 7.2-7.4 13.5-12.8 18.9 -5.4 5.4-11.7 9.7-18.9 12.8 -7.2 3.1-14.9 4.7-23.1 4.7 -8.2 0-15.9-1.5-23.1-4.7 -7.2-3.1-13.5-7.4-18.9-12.8 -5.4-5.4-9.7-11.7-12.8-18.9 -3.1-7.2-4.7-14.8-4.7-22.8 0-8.2 1.5-15.9 4.7-23.2 3.1-7.3 7.4-13.6 12.8-18.9 5.4-5.4 11.7-9.6 18.9-12.7 7.2-3.1 14.9-4.7 23.1-4.7 8.2 0 15.9 1.6 23.1 4.7 7.2 3.1 13.5 7.3 18.9 12.7 5.4 5.4 9.7 11.7 12.8 18.9 3.1 7.3 4.7 15 4.7 23.2C1155.8 176.5 1154.2 184.2 1151.1 191.3z"/><path class="st1" d="M1289.3 153.3c1.3-4.2 2-9.2 2-14.8 0-15.4-4.4-27.3-13.1-35.8 -3-2.8-6-5-9.2-6.6 -3.2-1.6-6.1-2.7-8.9-3.4 -2.8-0.7-5.1-1.1-7.1-1.3 -2-0.1-3.2-0.2-3.6-0.2H1182l45.7 74h-42.1v80.6h18v-62.4h35.3l39.3 63.9 15.4-9.3 -34.5-56.5c1.7-0.6 3.4-1.2 5.2-1.8 1.8-0.6 3.6-1.5 5.6-2.6 2.4-1.4 4.9-3.2 7.4-5.3s4.8-4.7 6.9-7.7C1286.3 161.1 1288 157.5 1289.3 153.3zM1261.3 161.5l0.2-0.2c-2.4 1.4-4.8 2.4-7.3 2.9 -2.5 0.5-4.3 0.9-5.4 1.2l-34.3-56.1h34.9c0.1 0 0.7 0 1.8 0.1 1.1 0.1 2.4 0.3 3.9 0.7 1.5 0.4 3.3 1.1 5.2 1.9 1.9 0.8 3.7 2.1 5.4 3.8v-0.2c5.1 4.9 7.6 12.6 7.6 22.8C1273.4 149.2 1269.4 156.9 1261.3 161.5z"/><path class="st1" d="M164 204.8c-7.6-7.1-15.1-14.2-22.5-21.3 -7.4-7.1-14.5-13.8-21.3-20.1V93.8l0 0h-17.6l0 0v152.1l0 0h104.7l0 0c-6.6-6.3-13.6-13-20.9-20C179.1 219 171.6 211.9 164 204.8zM120.2 228.2V188c4.1 3.8 7.9 7.4 11.4 10.7 3.5 3.3 7 6.6 10.4 9.7 3.4 3.2 6.7 6.4 10 9.6 3.3 3.2 6.8 6.6 10.5 10.2H120.2z"/><path class="st1" d="M442.2 253.3V94h-17.8v109.4L329.3 86.2v166.5l56.5-69L442.2 253.3zM360.6 186.8c-4.5 5.3-9 10.7-13.5 16.2v-66.4c2.8 3.5 5.4 6.6 7.6 9.3 2.3 2.7 4.4 5.3 6.3 7.7 2 2.5 4 5 6.1 7.6 2.1 2.6 4.5 5.5 7.2 8.8C369.7 175.9 365.1 181.5 360.6 186.8z"/><polygon class="st1" points="456.9 240.4 473 247.4 521.9 133 570.5 247.4 586.6 240.2 521.9 88.3 "/><path class="st1" d="M694.9 247.4l15.4-9.3 -34.5-56.5c1.7-0.6 3.4-1.2 5.2-1.8 1.8-0.6 3.6-1.5 5.6-2.6 2.4-1.4 4.9-3.2 7.4-5.3 2.5-2.1 4.8-4.7 6.9-7.7 2-3 3.7-6.7 5.1-10.9 1.3-4.2 2-9.2 2-14.8 0-15.4-4.4-27.3-13.1-35.8 -3-2.8-6-5-9.2-6.6 -3.2-1.6-6.1-2.7-8.9-3.4 -2.7-0.7-5.1-1.1-7.1-1.3 -2-0.1-3.2-0.2-3.6-0.2h-67.5l45.7 74h-42.1v80.6h18v-62.4h35.3L694.9 247.4zM631.2 109.3h34.9c0.1 0 0.7 0 1.8 0.1 1.1 0.1 2.4 0.3 3.9 0.7 1.5 0.4 3.3 1.1 5.2 1.9 1.9 0.8 3.7 2.1 5.4 3.8v-0.2c5.1 4.9 7.6 12.6 7.6 22.8 0 10.7-4 18.4-12.1 23.1l0.2-0.2c-2.4 1.4-4.8 2.4-7.3 2.9 -2.5 0.5-4.3 0.9-5.4 1.2L631.2 109.3z"/><path class="st1" d="M310.7 206.4c0.7-3.5 1.1-6.7 1.2-9.5 0.1-2.8 0.1-4.9 0.1-6.1V90.6h-18v100.9c0 0.8 0 2.2 0 4.1 0 1.9-0.2 4.1-0.6 6.6 -0.4 2.5-1.2 5-2.2 7.7 -1.1 2.7-2.6 5.2-4.8 7.6 -6.2 7.1-16.3 10.6-30.3 10.6 -13.5 0-23.8-3.7-30.7-11 -2.7-2.8-4.7-5.9-6-9.3 -1.3-3.4-2.3-6.6-2.8-9.5 -0.5-3-0.7-6.5-0.7-10.6V91.3h-18v96c0 0.7 0 2.5 0.1 5.4 0.1 2.9 0.5 6.4 1.4 10.5 0.8 4.1 2.3 8.5 4.2 13.1 2 4.7 4.9 9 8.7 13.1 10 11.1 24.6 16.7 43.8 16.7 9.3 0 17.7-1.5 25.2-4.5 7.5-3 13.7-7.2 18.6-12.6 3.1-3.5 5.5-7.3 7.2-11.3C308.7 213.7 309.9 209.9 310.7 206.4z"/></svg>